 http://desibbrg.org/images/66952052392581364616.gif
 
http://desibbrg.org/images/19160286075138397913.jpg
 
http://desibbrg.org/images/85438778928387087282.jpg
 
http://desibbrg.org/images/69769370578969542844.jpg
 
http://desibbrg.org/images/31619450853245849456.jpg
 
http://desibbrg.org/images/12176024357994173564.jpg

Info - 
Language : Hindi

Genre : Action

Star Cast : DARSHAN NAMITHA, ETCC

Synopsis : Janki (Namitha) is in love with the simpleton Indra (Darshan) after meeting him a couple of times. But she soon realises that he is into crime. Is he really a criminal or does he have some reason for walking on this dangerous path? Experience the thrills with this action-packed film which will also make you swing to the tunes of its romantic songs!

Media Info - 
General
Format                           : MPEG-4
Format profile                   : Base Media / Version 2
Codec ID                         : mp42
File size                        : 1.67 GiB
Duration                         : 1h 52mn
Overall bit rate                 : 2 129 Kbps
Encoded date                     : UTC 2011-12-29 05:22:18
Tagged date                      : UTC 2011-12-29 05:22:18
gsst                             : 0
gstd                             : 6721828
gssd                             : BADC23943HH1353258239341898

Video
ID                               : 1
Format                           : AVC
Format/Info                      : Advanced Video Codec
Format profile                   : High@L3.1
Format settings, CABAC           : Yes
Format settings, ReFrames        : 1 frame
Format settings, GOP             : M=1, N=60
Codec ID                         : avc1
Codec ID/Info                    : Advanced Video Coding
Duration                         : 1h 52mn
Bit rate mode                    : Variable
Bit rate                         : 1 975 Kbps
Maximum bit rate                 : 5 309 Kbps
Width                            : 1 280 pixels
Height                           : 720 pixels
Display aspect ratio             : 16:9
Frame rate mode                  : Constant
Frame rate                       : 25.000 fps
Color space                      : YUV
Chroma subsampling               : 4:2:0
Bit depth                        : 8 bits
Scan type                        : Progressive
Bits/(Pixel*Frame)               : 0.086
Stream size                      : 1.55 GiB (93%)
Tagged date                      : UTC 2011-12-29 05:25:10

Audio
ID                               : 2
Format                           : AAC
Format/Info                      : Advanced Audio Codec
Format profile                   : LC
Codec ID                         : 40
Duration                         : 1h 52mn
Bit rate mode                    : Variable
Bit rate                         : 152 Kbps
Maximum bit rate                 : 209 Kbps
Channel(s)                       : 2 channels
Channel positions                : Front: L R
Sampling rate                    : 44.1 KHz
Compression mode                 : Lossy
Stream size                      : 122 MiB (7%)
Title                            : IsoMedia File Produced by Google, 5-11-2011
Encoded date                     : UTC 2011-12-29 05:24:15
Tagged date                      : UTC 2011-12-29 05:25:10

Ripper : LOTTERY

Seeding 24x7... Extreme Seeding...


Enjoy!
